<svg xmlns="http://www.w3.org/2000/svg" width="760" height="460" viewBox="0 0 760 460">
    <rect width="100%" height="100%" fill="#ffffff"/>
    <text x="380.0" y="30" text-anchor="middle" font-family="Arial" font-size="22" font-weight="700">Predicted vs actual pIC50</text>
    <line x1="75" y1="55" x2="75" y2="400" stroke="#333"/>
    <line x1="75" y1="400" x2="725" y2="400" stroke="#333"/>
    <circle cx="470.5" cy="277.8" r="4" fill="#2c7fb8" opacity="0.74"/><circle cx="391.2" cy="250.6" r="4" fill="#2c7fb8" opacity="0.74"/><circle cx="484.5" cy="118.8" r="4" fill="#2c7fb8" opacity="0.74"/><circle cx="280.3" cy="294.3" r="4" fill="#2c7fb8" opacity="0.74"/><circle cx="434.9" cy="215.7" r="4" fill="#2c7fb8" opacity="0.74"/><circle cx="323.0" cy="267.5" r="4" fill="#2c7fb8" opacity="0.74"/><circle cx="131.6" cy="327.0" r="4" fill="#2c7fb8" opacity="0.74"/><circle cx="123.6" cy="328.0" r="4" fill="#2c7fb8" opacity="0.74"/><circle cx="507.1" cy="240.4" r="4" fill="#2c7fb8" opacity="0.74"/><circle cx="337.2" cy="264.1" r="4" fill="#2c7fb8" opacity="0.74"/><circle cx="408.4" cy="194.9" r="4" fill="#2c7fb8" opacity="0.74"/><circle cx="419.2" cy="193.8" r="4" fill="#2c7fb8" opacity="0.74"/><circle cx="471.5" cy="216.5" r="4" fill="#2c7fb8" opacity="0.74"/><circle cx="353.9" cy="179.7" r="4" fill="#2c7fb8" opacity="0.74"/><circle cx="456.1" cy="160.9" r="4" fill="#2c7fb8" opacity="0.74"/><circle cx="521.1" cy="199.4" r="4" fill="#2c7fb8" opacity="0.74"/><circle cx="481.7" cy="264.1" r="4" fill="#2c7fb8" opacity="0.74"/><circle cx="366.1" cy="188.8" r="4" fill="#2c7fb8" opacity="0.74"/><circle cx="224.7" cy="312.8" r="4" fill="#2c7fb8" opacity="0.74"/><circle cx="388.5" cy="250.5" r="4" fill="#2c7fb8" opacity="0.74"/><circle cx="345.4" cy="321.9" r="4" fill="#2c7fb8" opacity="0.74"/><circle cx="531.9" cy="220.2" r="4" fill="#2c7fb8" opacity="0.74"/><circle cx="431.8" cy="236.9" r="4" fill="#2c7fb8" opacity="0.74"/><circle cx="427.4" cy="200.5" r="4" fill="#2c7fb8" opacity="0.74"/><circle cx="383.4" cy="259.7" r="4" fill="#2c7fb8" opacity="0.74"/><circle cx="196.0" cy="367.2" r="4" fill="#2c7fb8" opacity="0.74"/><circle cx="292.9" cy="254.0" r="4" fill="#2c7fb8" opacity="0.74"/><circle cx="333.8" cy="227.2" r="4" fill="#2c7fb8" opacity="0.74"/><circle cx="271.9" cy="279.7" r="4" fill="#2c7fb8" opacity="0.74"/><circle cx="276.4" cy="249.5" r="4" fill="#2c7fb8" opacity="0.74"/><circle cx="409.5" cy="242.0" r="4" fill="#2c7fb8" opacity="0.74"/><circle cx="313.6" cy="255.8" r="4" fill="#2c7fb8" opacity="0.74"/><circle cx="242.0" cy="311.7" r="4" fill="#2c7fb8" opacity="0.74"/><circle cx="437.1" cy="186.9" r="4" fill="#2c7fb8" opacity="0.74"/><circle cx="240.0" cy="309.6" r="4" fill="#2c7fb8" opacity="0.74"/><circle cx="342.3" cy="174.3" r="4" fill="#2c7fb8" opacity="0.74"/><circle cx="436.5" cy="235.2" r="4" fill="#2c7fb8" opacity="0.74"/><circle cx="407.6" cy="212.4" r="4" fill="#2c7fb8" opacity="0.74"/><circle cx="328.5" cy="294.0" r="4" fill="#2c7fb8" opacity="0.74"/><circle cx="476.6" cy="212.6" r="4" fill="#2c7fb8" opacity="0.74"/><circle cx="364.5" cy="232.8" r="4" fill="#2c7fb8" opacity="0.74"/><circle cx="414.8" cy="217.6" r="4" fill="#2c7fb8" opacity="0.74"/><circle cx="266.8" cy="188.1" r="4" fill="#2c7fb8" opacity="0.74"/><circle cx="392.8" cy="225.8" r="4" fill="#2c7fb8" opacity="0.74"/><circle cx="583.8" cy="199.2" r="4" fill="#2c7fb8" opacity="0.74"/><circle cx="322.2" cy="268.4" r="4" fill="#2c7fb8" opacity="0.74"/><circle cx="286.6" cy="276.3" r="4" fill="#2c7fb8" opacity="0.74"/><circle cx="469.3" cy="197.5" r="4" fill="#2c7fb8" opacity="0.74"/><circle cx="528.7" cy="211.0" r="4" fill="#2c7fb8" opacity="0.74"/><circle cx="334.6" cy="298.5" r="4" fill="#2c7fb8" opacity="0.74"/><circle cx="442.8" cy="222.5" r="4" fill="#2c7fb8" opacity="0.74"/><circle cx="404.0" cy="195.7" r="4" fill="#2c7fb8" opacity="0.74"/><circle cx="368.4" cy="267.4" r="4" fill="#2c7fb8" opacity="0.74"/><circle cx="467.8" cy="291.8" r="4" fill="#2c7fb8" opacity="0.74"/><circle cx="168.0" cy="242.2" r="4" fill="#2c7fb8" opacity="0.74"/><circle cx="340.1" cy="211.7" r="4" fill="#2c7fb8" opacity="0.74"/><circle cx="373.7" cy="314.9" r="4" fill="#2c7fb8" opacity="0.74"/><circle cx="510.4" cy="240.0" r="4" fill="#2c7fb8" opacity="0.74"/><circle cx="419.0" cy="276.1" r="4" fill="#2c7fb8" opacity="0.74"/><circle cx="125.9" cy="331.4" r="4" fill="#2c7fb8" opacity="0.74"/><circle cx="443.2" cy="257.3" r="4" fill="#2c7fb8" opacity="0.74"/><circle cx="350.3" cy="238.0" r="4" fill="#2c7fb8" opacity="0.74"/><circle cx="324.6" cy="233.0" r="4" fill="#2c7fb8" opacity="0.74"/><circle cx="374.1" cy="254.5" r="4" fill="#2c7fb8" opacity="0.74"/><circle cx="327.5" cy="289.2" r="4" fill="#2c7fb8" opacity="0.74"/><circle cx="250.4" cy="275.9" r="4" fill="#2c7fb8" opacity="0.74"/><circle cx="460.9" cy="292.2" r="4" fill="#2c7fb8" opacity="0.74"/><circle cx="517.7" cy="157.0" r="4" fill="#2c7fb8" opacity="0.74"/><circle cx="535.0" cy="116.0" r="4" fill="#2c7fb8" opacity="0.74"/><circle cx="544.3" cy="136.8" r="4" fill="#2c7fb8" opacity="0.74"/><circle cx="288.0" cy="336.8" r="4" fill="#2c7fb8" opacity="0.74"/><circle cx="659.1" cy="143.5" r="4" fill="#2c7fb8" opacity="0.74"/><circle cx="526.0" cy="172.9" r="4" fill="#2c7fb8" opacity="0.74"/><circle cx="537.8" cy="133.0" r="4" fill="#2c7fb8" opacity="0.74"/><circle cx="519.3" cy="107.3" r="4" fill="#2c7fb8" opacity="0.74"/><circle cx="297.0" cy="364.8" r="4" fill="#2c7fb8" opacity="0.74"/><circle cx="399.9" cy="152.8" r="4" fill="#2c7fb8" opacity="0.74"/><circle cx="404.0" cy="274.4" r="4" fill="#2c7fb8" opacity="0.74"/><circle cx="516.3" cy="150.7" r="4" fill="#2c7fb8" opacity="0.74"/><circle cx="460.9" cy="199.8" r="4" fill="#2c7fb8" opacity="0.74"/><circle cx="456.9" cy="183.1" r="4" fill="#2c7fb8" opacity="0.74"/><circle cx="524.0" cy="195.1" r="4" fill="#2c7fb8" opacity="0.74"/><circle cx="364.1" cy="232.6" r="4" fill="#2c7fb8" opacity="0.74"/><circle cx="259.5" cy="288.3" r="4" fill="#2c7fb8" opacity="0.74"/><circle cx="369.6" cy="179.5" r="4" fill="#2c7fb8" opacity="0.74"/><circle cx="509.3" cy="272.0" r="4" fill="#2c7fb8" opacity="0.74"/><circle cx="517.3" cy="149.6" r="4" fill="#2c7fb8" opacity="0.74"/><circle cx="388.5" cy="249.0" r="4" fill="#2c7fb8" opacity="0.74"/><circle cx="434.9" cy="216.9" r="4" fill="#2c7fb8" opacity="0.74"/><circle cx="315.5" cy="256.2" r="4" fill="#2c7fb8" opacity="0.74"/><circle cx="138.1" cy="371.9" r="4" fill="#2c7fb8" opacity="0.74"/><circle cx="432.9" cy="256.8" r="4" fill="#2c7fb8" opacity="0.74"/><circle cx="399.3" cy="239.6" r="4" fill="#2c7fb8" opacity="0.74"/><circle cx="144.2" cy="306.2" r="4" fill="#2c7fb8" opacity="0.74"/><circle cx="388.5" cy="137.3" r="4" fill="#2c7fb8" opacity="0.74"/><circle cx="233.1" cy="311.0" r="4" fill="#2c7fb8" opacity="0.74"/><circle cx="384.0" cy="336.6" r="4" fill="#2c7fb8" opacity="0.74"/><circle cx="493.1" cy="200.3" r="4" fill="#2c7fb8" opacity="0.74"/><circle cx="189.5" cy="346.7" r="4" fill="#2c7fb8" opacity="0.74"/><circle cx="268.7" cy="288.9" r="4" fill="#2c7fb8" opacity="0.74"/><circle cx="307.5" cy="209.8" r="4" fill="#2c7fb8" opacity="0.74"/><circle cx="147.0" cy="381.1" r="4" fill="#2c7fb8" opacity="0.74"/><circle cx="348.6" cy="271.4" r="4" fill="#2c7fb8" opacity="0.74"/><circle cx="359.6" cy="168.3" r="4" fill="#2c7fb8" opacity="0.74"/><circle cx="572.0" cy="200.6" r="4" fill="#2c7fb8" opacity="0.74"/><circle cx="312.2" cy="235.6" r="4" fill="#2c7fb8" opacity="0.74"/><circle cx="351.1" cy="251.9" r="4" fill="#2c7fb8" opacity="0.74"/><circle cx="138.1" cy="345.5" r="4" fill="#2c7fb8" opacity="0.74"/><circle cx="615.8" cy="199.5" r="4" fill="#2c7fb8" opacity="0.74"/><circle cx="75.0" cy="391.2" r="4" fill="#2c7fb8" opacity="0.74"/><circle cx="458.3" cy="269.6" r="4" fill="#2c7fb8" opacity="0.74"/><circle cx="349.4" cy="237.8" r="4" fill="#2c7fb8" opacity="0.74"/><circle cx="296.8" cy="274.6" r="4" fill="#2c7fb8" opacity="0.74"/><circle cx="501.0" cy="205.5" r="4" fill="#2c7fb8" opacity="0.74"/><circle cx="358.2" cy="209.9" r="4" fill="#2c7fb8" opacity="0.74"/><circle cx="412.7" cy="273.0" r="4" fill="#2c7fb8" opacity="0.74"/><circle cx="561.0" cy="192.1" r="4" fill="#2c7fb8" opacity="0.74"/><circle cx="233.9" cy="354.4" r="4" fill="#2c7fb8" opacity="0.74"/><circle cx="394.6" cy="262.5" r="4" fill="#2c7fb8" opacity="0.74"/><circle cx="637.1" cy="211.9" r="4" fill="#2c7fb8" opacity="0.74"/><circle cx="527.9" cy="74.7" r="4" fill="#2c7fb8" opacity="0.74"/><circle cx="439.0" cy="195.3" r="4" fill="#2c7fb8" opacity="0.74"/><circle cx="499.8" cy="143.9" r="4" fill="#2c7fb8" opacity="0.74"/><circle cx="340.7" cy="299.0" r="4" fill="#2c7fb8" opacity="0.74"/><circle cx="304.7" cy="250.8" r="4" fill="#2c7fb8" opacity="0.74"/><circle cx="465.6" cy="222.6" r="4" fill="#2c7fb8" opacity="0.74"/><circle cx="379.3" cy="152.7" r="4" fill="#2c7fb8" opacity="0.74"/><circle cx="363.9" cy="240.6" r="4" fill="#2c7fb8" opacity="0.74"/><circle cx="564.7" cy="133.7" r="4" fill="#2c7fb8" opacity="0.74"/><circle cx="493.9" cy="243.9" r="4" fill="#2c7fb8" opacity="0.74"/><circle cx="491.6" cy="170.1" r="4" fill="#2c7fb8" opacity="0.74"/><circle cx="338.0" cy="212.3" r="4" fill="#2c7fb8" opacity="0.74"/><circle cx="375.3" cy="208.5" r="4" fill="#2c7fb8" opacity="0.74"/><circle cx="483.5" cy="224.8" r="4" fill="#2c7fb8" opacity="0.74"/><circle cx="355.8" cy="253.9" r="4" fill="#2c7fb8" opacity="0.74"/><circle cx="202.6" cy="254.1" r="4" fill="#2c7fb8" opacity="0.74"/><circle cx="388.9" cy="224.3" r="4" fill="#2c7fb8" opacity="0.74"/><circle cx="447.9" cy="221.0" r="4" fill="#2c7fb8" opacity="0.74"/><circle cx="356.0" cy="235.7" r="4" fill="#2c7fb8" opacity="0.74"/><circle cx="546.2" cy="215.9" r="4" fill="#2c7fb8" opacity="0.74"/><circle cx="389.5" cy="187.8" r="4" fill="#2c7fb8" opacity="0.74"/><circle cx="405.2" cy="169.5" r="4" fill="#2c7fb8" opacity="0.74"/><circle cx="300.0" cy="219.2" r="4" fill="#2c7fb8" opacity="0.74"/><circle cx="415.2" cy="239.1" r="4" fill="#2c7fb8" opacity="0.74"/><circle cx="317.5" cy="259.6" r="4" fill="#2c7fb8" opacity="0.74"/><circle cx="347.0" cy="236.5" r="4" fill="#2c7fb8" opacity="0.74"/><circle cx="498.0" cy="218.0" r="4" fill="#2c7fb8" opacity="0.74"/><circle cx="403.0" cy="229.6" r="4" fill="#2c7fb8" opacity="0.74"/><circle cx="205.0" cy="310.8" r="4" fill="#2c7fb8" opacity="0.74"/><circle cx="459.3" cy="205.7" r="4" fill="#2c7fb8" opacity="0.74"/><circle cx="556.8" cy="190.0" r="4" fill="#2c7fb8" opacity="0.74"/><circle cx="463.8" cy="210.2" r="4" fill="#2c7fb8" opacity="0.74"/><circle cx="267.3" cy="238.8" r="4" fill="#2c7fb8" opacity="0.74"/><circle cx="617.4" cy="163.9" r="4" fill="#2c7fb8" opacity="0.74"/><circle cx="314.9" cy="342.1" r="4" fill="#2c7fb8" opacity="0.74"/><circle cx="370.8" cy="249.4" r="4" fill="#2c7fb8" opacity="0.74"/><circle cx="572.8" cy="156.2" r="4" fill="#2c7fb8" opacity="0.74"/><circle cx="473.9" cy="241.6" r="4" fill="#2c7fb8" opacity="0.74"/><circle cx="224.1" cy="225.9" r="4" fill="#2c7fb8" opacity="0.74"/><circle cx="215.4" cy="264.9" r="4" fill="#2c7fb8" opacity="0.74"/><circle cx="402.7" cy="239.0" r="4" fill="#2c7fb8" opacity="0.74"/><circle cx="494.5" cy="217.9" r="4" fill="#2c7fb8" opacity="0.74"/><circle cx="622.1" cy="174.1" r="4" fill="#2c7fb8" opacity="0.74"/><circle cx="336.8" cy="215.3" r="4" fill="#2c7fb8" opacity="0.74"/><circle cx="528.9" cy="181.0" r="4" fill="#2c7fb8" opacity="0.74"/><circle cx="422.1" cy="228.3" r="4" fill="#2c7fb8" opacity="0.74"/><circle cx="388.1" cy="256.5" r="4" fill="#2c7fb8" opacity="0.74"/><circle cx="258.3" cy="285.1" r="4" fill="#2c7fb8" opacity="0.74"/><circle cx="510.6" cy="192.7" r="4" fill="#2c7fb8" opacity="0.74"/><circle cx="487.8" cy="241.0" r="4" fill="#2c7fb8" opacity="0.74"/><circle cx="725.0" cy="69.2" r="4" fill="#2c7fb8" opacity="0.74"/><circle cx="454.6" cy="148.0" r="4" fill="#2c7fb8" opacity="0.74"/><circle cx="326.3" cy="277.0" r="4" fill="#2c7fb8" opacity="0.74"/><circle cx="446.9" cy="304.0" r="4" fill="#2c7fb8" opacity="0.74"/><circle cx="432.7" cy="296.3" r="4" fill="#2c7fb8" opacity="0.74"/><circle cx="309.4" cy="245.7" r="4" fill="#2c7fb8" opacity="0.74"/><circle cx="480.3" cy="167.8" r="4" fill="#2c7fb8" opacity="0.74"/><circle cx="412.7" cy="222.7" r="4" fill="#2c7fb8" opacity="0.74"/><circle cx="373.9" cy="256.4" r="4" fill="#2c7fb8" opacity="0.74"/><circle cx="513.0" cy="202.8" r="4" fill="#2c7fb8" opacity="0.74"/><circle cx="175.9" cy="279.6" r="4" fill="#2c7fb8" opacity="0.74"/><circle cx="403.8" cy="248.4" r="4" fill="#2c7fb8" opacity="0.74"/><circle cx="523.4" cy="205.0" r="4" fill="#2c7fb8" opacity="0.74"/><circle cx="384.8" cy="268.8" r="4" fill="#2c7fb8" opacity="0.74"/><circle cx="404.0" cy="328.0" r="4" fill="#2c7fb8" opacity="0.74"/><circle cx="270.1" cy="284.3" r="4" fill="#2c7fb8" opacity="0.74"/><circle cx="408.4" cy="193.2" r="4" fill="#2c7fb8" opacity="0.74"/><circle cx="586.9" cy="229.6" r="4" fill="#2c7fb8" opacity="0.74"/><circle cx="489.8" cy="198.9" r="4" fill="#2c7fb8" opacity="0.74"/><circle cx="504.1" cy="264.2" r="4" fill="#2c7fb8" opacity="0.74"/><circle cx="322.4" cy="233.7" r="4" fill="#2c7fb8" opacity="0.74"/><circle cx="298.2" cy="295.8" r="4" fill="#2c7fb8" opacity="0.74"/><circle cx="453.0" cy="207.2" r="4" fill="#2c7fb8" opacity="0.74"/><circle cx="428.0" cy="208.5" r="4" fill="#2c7fb8" opacity="0.74"/><circle cx="366.7" cy="245.8" r="4" fill="#2c7fb8" opacity="0.74"/><circle cx="404.6" cy="298.7" r="4" fill="#2c7fb8" opacity="0.74"/><circle cx="435.3" cy="251.6" r="4" fill="#2c7fb8" opacity="0.74"/><circle cx="581.8" cy="213.6" r="4" fill="#2c7fb8" opacity="0.74"/><circle cx="329.7" cy="219.2" r="4" fill="#2c7fb8" opacity="0.74"/><circle cx="397.7" cy="228.0" r="4" fill="#2c7fb8" opacity="0.74"/><circle cx="571.0" cy="274.2" r="4" fill="#2c7fb8" opacity="0.74"/><circle cx="483.9" cy="206.1" r="4" fill="#2c7fb8" opacity="0.74"/><circle cx="452.4" cy="224.4" r="4" fill="#2c7fb8" opacity="0.74"/><circle cx="399.5" cy="250.5" r="4" fill="#2c7fb8" opacity="0.74"/><circle cx="447.3" cy="233.8" r="4" fill="#2c7fb8" opacity="0.74"/><circle cx="415.8" cy="300.0" r="4" fill="#2c7fb8" opacity="0.74"/><circle cx="540.9" cy="179.1" r="4" fill="#2c7fb8" opacity="0.74"/><circle cx="368.4" cy="208.8" r="4" fill="#2c7fb8" opacity="0.74"/><circle cx="358.4" cy="236.8" r="4" fill="#2c7fb8" opacity="0.74"/><circle cx="369.0" cy="225.9" r="4" fill="#2c7fb8" opacity="0.74"/><circle cx="433.9" cy="246.8" r="4" fill="#2c7fb8" opacity="0.74"/><circle cx="451.6" cy="226.8" r="4" fill="#2c7fb8" opacity="0.74"/><circle cx="227.0" cy="327.1" r="4" fill="#2c7fb8" opacity="0.74"/><circle cx="468.9" cy="190.6" r="4" fill="#2c7fb8" opacity="0.74"/><circle cx="328.3" cy="228.7" r="4" fill="#2c7fb8" opacity="0.74"/><circle cx="232.9" cy="366.2" r="4" fill="#2c7fb8" opacity="0.74"/><circle cx="286.0" cy="270.2" r="4" fill="#2c7fb8" opacity="0.74"/><circle cx="343.5" cy="261.3" r="4" fill="#2c7fb8" opacity="0.74"/><circle cx="145.2" cy="383.9" r="4" fill="#2c7fb8" opacity="0.74"/><circle cx="551.3" cy="187.8" r="4" fill="#2c7fb8" opacity="0.74"/><circle cx="357.2" cy="222.6" r="4" fill="#2c7fb8" opacity="0.74"/><circle cx="417.0" cy="152.1" r="4" fill="#2c7fb8" opacity="0.74"/><circle cx="415.0" cy="270.7" r="4" fill="#2c7fb8" opacity="0.74"/><circle cx="447.9" cy="170.9" r="4" fill="#2c7fb8" opacity="0.74"/><circle cx="424.1" cy="217.1" r="4" fill="#2c7fb8" opacity="0.74"/><circle cx="522.0" cy="181.3" r="4" fill="#2c7fb8" opacity="0.74"/><circle cx="377.5" cy="206.9" r="4" fill="#2c7fb8" opacity="0.74"/><circle cx="281.1" cy="272.5" r="4" fill="#2c7fb8" opacity="0.74"/><circle cx="486.2" cy="168.0" r="4" fill="#2c7fb8" opacity="0.74"/><circle cx="529.9" cy="212.0" r="4" fill="#2c7fb8" opacity="0.74"/><circle cx="338.7" cy="298.0" r="4" fill="#2c7fb8" opacity="0.74"/><circle cx="491.7" cy="135.0" r="4" fill="#2c7fb8" opacity="0.74"/><circle cx="448.3" cy="133.5" r="4" fill="#2c7fb8" opacity="0.74"/><circle cx="491.9" cy="210.1" r="4" fill="#2c7fb8" opacity="0.74"/><circle cx="540.9" cy="114.6" r="4" fill="#2c7fb8" opacity="0.74"/><circle cx="305.9" cy="271.4" r="4" fill="#2c7fb8" opacity="0.74"/><circle cx="355.5" cy="266.0" r="4" fill="#2c7fb8" opacity="0.74"/><circle cx="424.5" cy="249.0" r="4" fill="#2c7fb8" opacity="0.74"/><circle cx="347.8" cy="242.5" r="4" fill="#2c7fb8" opacity="0.74"/><circle cx="495.5" cy="242.2" r="4" fill="#2c7fb8" opacity="0.74"/><circle cx="427.4" cy="210.1" r="4" fill="#2c7fb8" opacity="0.74"/><circle cx="452.2" cy="248.2" r="4" fill="#2c7fb8" opacity="0.74"/><circle cx="429.2" cy="237.6" r="4" fill="#2c7fb8" opacity="0.74"/><circle cx="444.9" cy="181.0" r="4" fill="#2c7fb8" opacity="0.74"/><circle cx="322.6" cy="160.8" r="4" fill="#2c7fb8" opacity="0.74"/><circle cx="414.8" cy="199.8" r="4" fill="#2c7fb8" opacity="0.74"/><circle cx="423.3" cy="201.5" r="4" fill="#2c7fb8" opacity="0.74"/><circle cx="474.4" cy="247.3" r="4" fill="#2c7fb8" opacity="0.74"/><circle cx="356.0" cy="273.9" r="4" fill="#2c7fb8" opacity="0.74"/><circle cx="212.3" cy="294.8" r="4" fill="#2c7fb8" opacity="0.74"/><circle cx="369.0" cy="237.5" r="4" fill="#2c7fb8" opacity="0.74"/><circle cx="303.5" cy="263.2" r="4" fill="#2c7fb8" opacity="0.74"/><circle cx="575.3" cy="197.6" r="4" fill="#2c7fb8" opacity="0.74"/><circle cx="328.7" cy="160.8" r="4" fill="#2c7fb8" opacity="0.74"/><circle cx="430.0" cy="323.1" r="4" fill="#2c7fb8" opacity="0.74"/><circle cx="294.7" cy="208.7" r="4" fill="#2c7fb8" opacity="0.74"/><circle cx="159.6" cy="400.0" r="4" fill="#2c7fb8" opacity="0.74"/><circle cx="484.9" cy="211.6" r="4" fill="#2c7fb8" opacity="0.74"/><circle cx="349.9" cy="238.8" r="4" fill="#2c7fb8" opacity="0.74"/><circle cx="711.8" cy="106.7" r="4" fill="#2c7fb8" opacity="0.74"/><circle cx="392.4" cy="149.0" r="4" fill="#2c7fb8" opacity="0.74"/><circle cx="491.2" cy="167.3" r="4" fill="#2c7fb8" opacity="0.74"/><circle cx="310.0" cy="226.6" r="4" fill="#2c7fb8" opacity="0.74"/><circle cx="372.4" cy="307.7" r="4" fill="#2c7fb8" opacity="0.74"/><circle cx="353.5" cy="284.2" r="4" fill="#2c7fb8" opacity="0.74"/><circle cx="463.0" cy="131.5" r="4" fill="#2c7fb8" opacity="0.74"/><circle cx="304.7" cy="315.8" r="4" fill="#2c7fb8" opacity="0.74"/><circle cx="516.7" cy="200.6" r="4" fill="#2c7fb8" opacity="0.74"/><circle cx="361.0" cy="263.7" r="4" fill="#2c7fb8" opacity="0.74"/><circle cx="355.5" cy="268.2" r="4" fill="#2c7fb8" opacity="0.74"/><circle cx="471.7" cy="231.4" r="4" fill="#2c7fb8" opacity="0.74"/><circle cx="451.2" cy="213.8" r="4" fill="#2c7fb8" opacity="0.74"/><circle cx="110.2" cy="343.6" r="4" fill="#2c7fb8" opacity="0.74"/><circle cx="318.3" cy="274.2" r="4" fill="#2c7fb8" opacity="0.74"/><circle cx="318.3" cy="270.3" r="4" fill="#2c7fb8" opacity="0.74"/><circle cx="508.5" cy="218.7" r="4" fill="#2c7fb8" opacity="0.74"/><circle cx="453.8" cy="233.1" r="4" fill="#2c7fb8" opacity="0.74"/><circle cx="415.6" cy="190.1" r="4" fill="#2c7fb8" opacity="0.74"/><circle cx="154.8" cy="329.2" r="4" fill="#2c7fb8" opacity="0.74"/><circle cx="222.7" cy="273.5" r="4" fill="#2c7fb8" opacity="0.74"/><circle cx="611.7" cy="184.0" r="4" fill="#2c7fb8" opacity="0.74"/><circle cx="296.8" cy="237.1" r="4" fill="#2c7fb8" opacity="0.74"/><circle cx="347.4" cy="253.7" r="4" fill="#2c7fb8" opacity="0.74"/><circle cx="182.4" cy="294.9" r="4" fill="#2c7fb8" opacity="0.74"/><circle cx="352.1" cy="221.4" r="4" fill="#2c7fb8" opacity="0.74"/><circle cx="296.5" cy="301.9" r="4" fill="#2c7fb8" opacity="0.74"/><circle cx="260.9" cy="336.1" r="4" fill="#2c7fb8" opacity="0.74"/><circle cx="377.9" cy="267.9" r="4" fill="#2c7fb8" opacity="0.74"/><circle cx="329.1" cy="217.2" r="4" fill="#2c7fb8" opacity="0.74"/><circle cx="357.4" cy="228.9" r="4" fill="#2c7fb8" opacity="0.74"/><circle cx="423.5" cy="151.9" r="4" fill="#2c7fb8" opacity="0.74"/><circle cx="369.4" cy="225.4" r="4" fill="#2c7fb8" opacity="0.74"/><circle cx="224.5" cy="322.4" r="4" fill="#2c7fb8" opacity="0.74"/><circle cx="489.2" cy="213.2" r="4" fill="#2c7fb8" opacity="0.74"/><circle cx="209.9" cy="298.9" r="4" fill="#2c7fb8" opacity="0.74"/><circle cx="393.0" cy="242.9" r="4" fill="#2c7fb8" opacity="0.74"/><circle cx="273.8" cy="355.1" r="4" fill="#2c7fb8" opacity="0.74"/><circle cx="336.0" cy="211.9" r="4" fill="#2c7fb8" opacity="0.74"/><circle cx="426.6" cy="209.1" r="4" fill="#2c7fb8" opacity="0.74"/><circle cx="389.7" cy="213.0" r="4" fill="#2c7fb8" opacity="0.74"/><circle cx="392.8" cy="316.1" r="4" fill="#2c7fb8" opacity="0.74"/><circle cx="357.8" cy="231.3" r="4" fill="#2c7fb8" opacity="0.74"/><circle cx="328.9" cy="352.8" r="4" fill="#2c7fb8" opacity="0.74"/><circle cx="508.1" cy="253.1" r="4" fill="#2c7fb8" opacity="0.74"/><circle cx="410.1" cy="230.5" r="4" fill="#2c7fb8" opacity="0.74"/><circle cx="261.2" cy="289.9" r="4" fill="#2c7fb8" opacity="0.74"/><circle cx="440.4" cy="256.7" r="4" fill="#2c7fb8" opacity="0.74"/><circle cx="281.1" cy="333.2" r="4" fill="#2c7fb8" opacity="0.74"/><circle cx="514.2" cy="142.5" r="4" fill="#2c7fb8" opacity="0.74"/><circle cx="562.9" cy="205.2" r="4" fill="#2c7fb8" opacity="0.74"/><circle cx="459.7" cy="290.1" r="4" fill="#2c7fb8" opacity="0.74"/><circle cx="524.0" cy="190.2" r="4" fill="#2c7fb8" opacity="0.74"/><circle cx="404.4" cy="256.3" r="4" fill="#2c7fb8" opacity="0.74"/><circle cx="210.5" cy="308.5" r="4" fill="#2c7fb8" opacity="0.74"/><circle cx="497.5" cy="163.7" r="4" fill="#2c7fb8" opacity="0.74"/><circle cx="408.0" cy="220.7" r="4" fill="#2c7fb8" opacity="0.74"/><circle cx="370.0" cy="341.1" r="4" fill="#2c7fb8" opacity="0.74"/><circle cx="458.5" cy="167.3" r="4" fill="#2c7fb8" opacity="0.74"/><circle cx="360.0" cy="212.6" r="4" fill="#2c7fb8" opacity="0.74"/><circle cx="502.4" cy="55.0" r="4" fill="#2c7fb8" opacity="0.74"/><circle cx="553.1" cy="207.3" r="4" fill="#2c7fb8" opacity="0.74"/><circle cx="246.5" cy="377.0" r="4" fill="#2c7fb8" opacity="0.74"/><circle cx="496.9" cy="164.4" r="4" fill="#2c7fb8" opacity="0.74"/><circle cx="473.7" cy="233.9" r="4" fill="#2c7fb8" opacity="0.74"/><circle cx="499.2" cy="215.4" r="4" fill="#2c7fb8" opacity="0.74"/><circle cx="252.8" cy="281.8" r="4" fill="#2c7fb8" opacity="0.74"/><circle cx="295.5" cy="267.2" r="4" fill="#2c7fb8" opacity="0.74"/><circle cx="349.0" cy="328.8" r="4" fill="#2c7fb8" opacity="0.74"/><circle cx="505.1" cy="114.9" r="4" fill="#2c7fb8" opacity="0.74"/><circle cx="76.0" cy="367.3" r="4" fill="#2c7fb8" opacity="0.74"/><circle cx="384.6" cy="147.9" r="4" fill="#2c7fb8" opacity="0.74"/><circle cx="314.7" cy="203.8" r="4" fill="#2c7fb8" opacity="0.74"/><circle cx="416.0" cy="223.7" r="4" fill="#2c7fb8" opacity="0.74"/><circle cx="466.0" cy="233.4" r="4" fill="#2c7fb8" opacity="0.74"/><circle cx="664.4" cy="91.2" r="4" fill="#2c7fb8" opacity="0.74"/><circle cx="421.9" cy="271.2" r="4" fill="#2c7fb8" opacity="0.74"/><circle cx="269.7" cy="264.2" r="4" fill="#2c7fb8" opacity="0.74"/><circle cx="485.5" cy="167.2" r="4" fill="#2c7fb8" opacity="0.74"/><circle cx="248.3" cy="274.0" r="4" fill="#2c7fb8" opacity="0.74"/><circle cx="221.9" cy="283.2" r="4" fill="#2c7fb8" opacity="0.74"/><circle cx="364.5" cy="264.2" r="4" fill="#2c7fb8" opacity="0.74"/><circle cx="382.0" cy="209.6" r="4" fill="#2c7fb8" opacity="0.74"/><circle cx="623.1" cy="67.0" r="4" fill="#2c7fb8" opacity="0.74"/><circle cx="407.0" cy="148.9" r="4" fill="#2c7fb8" opacity="0.74"/><circle cx="254.2" cy="339.6" r="4" fill="#2c7fb8" opacity="0.74"/><circle cx="485.1" cy="148.3" r="4" fill="#2c7fb8" opacity="0.74"/><circle cx="341.7" cy="265.7" r="4" fill="#2c7fb8" opacity="0.74"/><circle cx="431.2" cy="334.4" r="4" fill="#2c7fb8" opacity="0.74"/><circle cx="367.5" cy="316.7" r="4" fill="#2c7fb8" opacity="0.74"/><circle cx="408.2" cy="255.8" r="4" fill="#2c7fb8" opacity="0.74"/><circle cx="294.1" cy="306.7" r="4" fill="#2c7fb8" opacity="0.74"/><circle cx="310.2" cy="371.1" r="4" fill="#2c7fb8" opacity="0.74"/><circle cx="445.7" cy="166.2" r="4" fill="#2c7fb8" opacity="0.74"/><circle cx="399.5" cy="163.9" r="4" fill="#2c7fb8" opacity="0.74"/><circle cx="534.4" cy="229.6" r="4" fill="#2c7fb8" opacity="0.74"/><circle cx="308.1" cy="302.6" r="4" fill="#2c7fb8" opacity="0.74"/><circle cx="366.3" cy="227.5" r="4" fill="#2c7fb8" opacity="0.74"/><circle cx="272.5" cy="274.6" r="4" fill="#2c7fb8" opacity="0.74"/><circle cx="393.6" cy="267.6" r="4" fill="#2c7fb8" opacity="0.74"/><circle cx="355.7" cy="339.5" r="4" fill="#2c7fb8" opacity="0.74"/><circle cx="399.3" cy="220.9" r="4" fill="#2c7fb8" opacity="0.74"/><circle cx="235.7" cy="233.6" r="4" fill="#2c7fb8" opacity="0.74"/><circle cx="564.5" cy="217.1" r="4" fill="#2c7fb8" opacity="0.74"/><circle cx="550.0" cy="230.6" r="4" fill="#2c7fb8" opacity="0.74"/><circle cx="408.2" cy="186.7" r="4" fill="#2c7fb8" opacity="0.74"/><circle cx="421.7" cy="192.1" r="4" fill="#2c7fb8" opacity="0.74"/><circle cx="546.4" cy="223.2" r="4" fill="#2c7fb8" opacity="0.74"/><circle cx="545.2" cy="187.6" r="4" fill="#2c7fb8" opacity="0.74"/><circle cx="422.7" cy="203.6" r="4" fill="#2c7fb8" opacity="0.74"/><circle cx="489.6" cy="158.5" r="4" fill="#2c7fb8" opacity="0.74"/><circle cx="332.8" cy="327.2" r="4" fill="#2c7fb8" opacity="0.74"/><circle cx="418.2" cy="168.7" r="4" fill="#2c7fb8" opacity="0.74"/><circle cx="352.7" cy="298.3" r="4" fill="#2c7fb8" opacity="0.74"/><circle cx="406.8" cy="144.7" r="4" fill="#2c7fb8" opacity="0.74"/><circle cx="243.5" cy="254.8" r="4" fill="#2c7fb8" opacity="0.74"/><circle cx="476.2" cy="168.3" r="4" fill="#2c7fb8" opacity="0.74"/><circle cx="653.6" cy="104.4" r="4" fill="#2c7fb8" opacity="0.74"/><circle cx="348.4" cy="180.6" r="4" fill="#2c7fb8" opacity="0.74"/><circle cx="311.8" cy="274.3" r="4" fill="#2c7fb8" opacity="0.74"/><circle cx="434.1" cy="196.2" r="4" fill="#2c7fb8" opacity="0.74"/><circle cx="368.2" cy="213.5" r="4" fill="#2c7fb8" opacity="0.74"/><circle cx="500.6" cy="161.0" r="4" fill="#2c7fb8" opacity="0.74"/><circle cx="444.3" cy="222.1" r="4" fill="#2c7fb8" opacity="0.74"/><circle cx="240.4" cy="320.0" r="4" fill="#2c7fb8" opacity="0.74"/><circle cx="457.7" cy="210.1" r="4" fill="#2c7fb8" opacity="0.74"/><circle cx="517.1" cy="171.6" r="4" fill="#2c7fb8" opacity="0.74"/><circle cx="314.7" cy="240.7" r="4" fill="#2c7fb8" opacity="0.74"/><circle cx="323.6" cy="302.6" r="4" fill="#2c7fb8" opacity="0.74"/><circle cx="400.1" cy="263.0" r="4" fill="#2c7fb8" opacity="0.74"/><circle cx="338.9" cy="291.7" r="4" fill="#2c7fb8" opacity="0.74"/><circle cx="593.4" cy="145.4" r="4" fill="#2c7fb8" opacity="0.74"/><circle cx="280.9" cy="306.5" r="4" fill="#2c7fb8" opacity="0.74"/><circle cx="505.3" cy="227.8" r="4" fill="#2c7fb8" opacity="0.74"/><circle cx="201.7" cy="241.6" r="4" fill="#2c7fb8" opacity="0.74"/><circle cx="626.9" cy="120.9" r="4" fill="#2c7fb8" opacity="0.74"/><circle cx="581.0" cy="157.7" r="4" fill="#2c7fb8" opacity="0.74"/><circle cx="284.1" cy="274.7" r="4" fill="#2c7fb8" opacity="0.74"/><circle cx="228.4" cy="300.0" r="4" fill="#2c7fb8" opacity="0.74"/><circle cx="291.9" cy="287.4" r="4" fill="#2c7fb8" opacity="0.74"/><circle cx="482.5" cy="194.1" r="4" fill="#2c7fb8" opacity="0.74"/><circle cx="240.8" cy="270.2" r="4" fill="#2c7fb8" opacity="0.74"/><circle cx="287.4" cy="227.7" r="4" fill="#2c7fb8" opacity="0.74"/><circle cx="381.8" cy="253.3" r="4" fill="#2c7fb8" opacity="0.74"/><circle cx="405.4" cy="228.3" r="4" fill="#2c7fb8" opacity="0.74"/><circle cx="289.0" cy="310.2" r="4" fill="#2c7fb8" opacity="0.74"/><circle cx="579.3" cy="59.6" r="4" fill="#2c7fb8" opacity="0.74"/><circle cx="290.2" cy="256.2" r="4" fill="#2c7fb8" opacity="0.74"/><circle cx="274.8" cy="234.5" r="4" fill="#2c7fb8" opacity="0.74"/><circle cx="527.9" cy="64.0" r="4" fill="#2c7fb8" opacity="0.74"/><circle cx="372.4" cy="221.7" r="4" fill="#2c7fb8" opacity="0.74"/><circle cx="514.6" cy="133.9" r="4" fill="#2c7fb8" opacity="0.74"/><circle cx="339.9" cy="289.6" r="4" fill="#2c7fb8" opacity="0.74"/><circle cx="598.0" cy="118.4" r="4" fill="#2c7fb8" opacity="0.74"/><circle cx="238.4" cy="199.1" r="4" fill="#2c7fb8" opacity="0.74"/><circle cx="368.8" cy="249.5" r="4" fill="#2c7fb8" opacity="0.74"/><circle cx="481.9" cy="209.7" r="4" fill="#2c7fb8" opacity="0.74"/><circle cx="433.9" cy="178.7" r="4" fill="#2c7fb8" opacity="0.74"/><circle cx="364.9" cy="224.6" r="4" fill="#2c7fb8" opacity="0.74"/><circle cx="176.9" cy="350.8" r="4" fill="#2c7fb8" opacity="0.74"/><circle cx="191.4" cy="299.5" r="4" fill="#2c7fb8" opacity="0.74"/>
    </svg>